<svg width="0" height="0" class="hidden">
    <symbol xmlns="http://www.w3.org/2000/svg" fill="currentColor" viewBox="0 0 256 256" id="Brain">
        <path
            d="M248,124a56.11,56.11,0,0,0-32-50.61V72a48,48,0,0,0-88-26.49A48,48,0,0,0,40,72v1.39a56,56,0,0,0,0,101.2V176a48,48,0,0,0,88,26.49A48,48,0,0,0,216,176v-1.41A56.09,56.09,0,0,0,248,124ZM88,208a32,32,0,0,1-31.81-28.56A55.87,55.87,0,0,0,64,180h8a8,8,0,0,0,0-16H64A40,40,0,0,1,50.67,86.27,8,8,0,0,0,56,78.73V72a32,32,0,0,1,64,0v68.26A47.8,47.8,0,0,0,88,128a8,8,0,0,0,0,16,32,32,0,0,1,0,64Zm104-44h-8a8,8,0,0,0,0,16h8a55.87,55.87,0,0,0,7.81-.56A32,32,0,1,1,168,144a8,8,0,0,0,0-16,47.8,47.8,0,0,0-32,12.26V72a32,32,0,0,1,64,0v6.73a8,8,0,0,0,5.33,7.54A40,40,0,0,1,192,164Zm16-52a8,8,0,0,1-8,8h-4a36,36,0,0,1-36-36V80a8,8,0,0,1,16,0v4a20,20,0,0,0,20,20h4A8,8,0,0,1,208,112ZM60,120H56a8,8,0,0,1,0-16h4A20,20,0,0,0,80,84V80a8,8,0,0,1,16,0v4A36,36,0,0,1,60,120Z">
        </path>
    </symbol>
    <symbol xmlns="http://www.w3.org/2000/svg" fill="currentColor" viewBox="0 0 50 50" id="Facebook">
        <path
            d="M25,3C12.85,3,3,12.85,3,25c0,11.03,8.125,20.137,18.712,21.728V30.831h-5.443v-5.783h5.443v-3.848 c0-6.371,3.104-9.168,8.399-9.168c2.536,0,3.877,0.188,4.512,0.274v5.048h-3.612c-2.248,0-3.033,2.131-3.033,4.533v3.161h6.588 l-0.894,5.783h-5.694v15.944C38.716,45.318,47,36.137,47,25C47,12.85,37.15,3,25,3z">
        </path>
    </symbol>
    <symbol xmlns="http://www.w3.org/2000/svg" fill="currentColor" viewBox="0 0 50 50" id="Instagram">
        <path
            d="M 16 3 C 8.83 3 3 8.83 3 16 L 3 34 C 3 41.17 8.83 47 16 47 L 34 47 C 41.17 47 47 41.17 47 34 L 47 16 C 47 8.83 41.17 3 34 3 L 16 3 z M 37 11 C 38.1 11 39 11.9 39 13 C 39 14.1 38.1 15 37 15 C 35.9 15 35 14.1 35 13 C 35 11.9 35.9 11 37 11 z M 25 14 C 31.07 14 36 18.93 36 25 C 36 31.07 31.07 36 25 36 C 18.93 36 14 31.07 14 25 C 14 18.93 18.93 14 25 14 z M 25 16 C 20.04 16 16 20.04 16 25 C 16 29.96 20.04 34 25 34 C 29.96 34 34 29.96 34 25 C 34 20.04 29.96 16 25 16 z">
        </path>
    </symbol>
    <symbol xmlns="http://www.w3.org/2000/svg" fill="currentColor" viewBox="0 0 256 256" id="Calci">
        <path
            d="M80,120h96a8,8,0,0,0,8-8V64a8,8,0,0,0-8-8H80a8,8,0,0,0-8,8v48A8,8,0,0,0,80,120Zm8-48h80v32H88ZM200,24H56A16,16,0,0,0,40,40V216a16,16,0,0,0,16,16H200a16,16,0,0,0,16-16V40A16,16,0,0,0,200,24Zm0,192H56V40H200ZM100,148a12,12,0,1,1-12-12A12,12,0,0,1,100,148Zm40,0a12,12,0,1,1-12-12A12,12,0,0,1,140,148Zm40,0a12,12,0,1,1-12-12A12,12,0,0,1,180,148Zm-80,40a12,12,0,1,1-12-12A12,12,0,0,1,100,188Zm40,0a12,12,0,1,1-12-12A12,12,0,0,1,140,188Zm40,0a12,12,0,1,1-12-12A12,12,0,0,1,180,188Z">
        </path>
    </symbol>
    <symbol xmlns="http://www.w3.org/2000/svg" fill="currentColor" viewBox="0 0 256 256" id="Interactive">
        <path
            d="M168,124a12,12,0,1,1-12-12A12,12,0,0,1,168,124Zm12-60a12,12,0,1,0-12,12A12,12,0,0,0,180,64Zm42.14,95.21a12,12,0,1,0-16.97,1.93A84.1,84.1,0,0,1,232,204c0,10.53-8.94,20-20,20a30.5,30.5,0,0,1-12.1-2.7,53.56,53.56,0,0,0-18.47-3.3H174.55c-17.75,0-27.34,8.61-33.73,14.33a23.87,23.87,0,0,1-16.34,6.37h-9.22a23.85,23.85,0,0,1-16.33-6.37c-6.4-5.72-16-14.33-33.74-14.33A53.55,53.55,0,0,0,43.69,221.3,30.48,30.48,0,0,1,31.59,224c-11,0-20-9.47-20-20A84.12,84.12,0,0,1,46.83,161.1a12,12,0,1,0-15-18.93A107.66,107.66,0,0,0,4,204c0,21.6,18.12,44,44,44a54.57,54.57,0,0,0,20.53-4.13c5.29-2.21,12.38-2.19,17.7,2.46,8.51,7.61,20.37,13.67,34.33,13.67h9.22c14,0,25.83-6.06,34.34-13.67,5.32-4.65,12.41-4.67,17.7-2.46A54.56,54.56,0,0,0,208,248c25.86,0,44-22.41,44-44A107.66,107.66,0,0,0,223.07,142.1ZM64,96a12,12,0,1,0,12,12A12,12,0,0,0,64,96Zm54.31,46.54a12,12,0,0,0,21.38,0L159,98.55A12,12,0,0,0,148.28,82H107.72a12,12,0,0,0-10.72,16.55ZM64,52A12,12,0,1,1,52,64,12,12,0,0,1,64,52Z">
        </path>
    </symbol>
    <symbol xmlns="http://www.w3.org/2000/svg" fill="currentColor" viewBox="0 0 256 256" id="Overall">
        <path
            d="M224,48V76a8,8,0,0,1-16,0V48H180a8,8,0,0,1,0-16h28A16,16,0,0,1,224,48Zm-8,124a8,8,0,0,0-8,8v28H180a8,8,0,0,0,0,16h28a16,16,0,0,0,16-16V180A8,8,0,0,0,216,172ZM76,208H48V180a8,8,0,0,0-16,0v28a16,16,0,0,0,16,16H76a8,8,0,0,0,0-16ZM40,84a8,8,0,0,0,8-8V48H76a8,8,0,0,0,0-16H48A16,16,0,0,0,32,48V76A8,8,0,0,0,40,84Zm136,92a8,8,0,0,1-6.41-3.19,52,52,0,0,0-83.2,0,8,8,0,1,1-12.8-9.62A67.94,67.94,0,0,1,101,141.51a40,40,0,1,1,53.94,0,67.94,67.94,0,0,1,27.43,21.68A8,8,0,0,1,176,176Zm-24-60a24,24,0,1,0-24,24A24,24,0,0,0,152,116Z">
        </path>
    </symbol>
    <symbol xmlns="http://www.w3.org/2000/svg" fill="currentColor" viewBox="0 0 256 256" id="Infinity">
        <path
            d="M248,128a56,56,0,0,1-95.6,39.6l-.33-.35L92.12,99.55a40,40,0,1,0,0,56.9l8.52-9.62a8,8,0,1,1,12,10.61l-8.69,9.81-.33.35a56,56,0,1,1,0-79.2l.33.35,59.95,67.7a40,40,0,1,0,0-56.9l-8.52,9.62a8,8,0,1,1-12-10.61l8.69-9.81.33-.35A56,56,0,0,1,248,128Z">
        </path>
    </symbol>
    <symbol xmlns="http://www.w3.org/2000/svg" fill="currentColor" viewBox="0 0 256 256" id="Pencil">
        <path
            d="M227.31,73.37,182.63,28.68a16,16,0,0,0-22.63,0L36.69,152A15.86,15.86,0,0,0,32,163.31V208a16,16,0,0,0,16,16H92.69A15.86,15.86,0,0,0,104,219.31L227.31,96a16,16,0,0,0,0-22.63ZM51.31,160,136,75.31,152.69,92,68,176.68ZM48,179.31,76.69,208H48Zm48,25.38L79.31,188,164,103.31,180.69,120Zm96-96L147.31,64l24-24L216,84.68Z">
        </path>
    </symbol>
    <symbol xmlns="http://www.w3.org/2000/svg" fill="currentColor" viewBox="0 0 256 256" id="Smiley">
        <path
            d="M128,24A104,104,0,1,0,232,128,104.11,104.11,0,0,0,128,24Zm0,192a88,88,0,1,1,88-88A88.1,88.1,0,0,1,128,216ZM80,108a12,12,0,1,1,12,12A12,12,0,0,1,80,108Zm96,0a12,12,0,1,1-12-12A12,12,0,0,1,176,108Zm-1.07,48c-10.29,17.79-27.4,28-46.93,28s-36.63-10.2-46.92-28a8,8,0,1,1,13.84-8c7.47,12.91,19.21,20,33.08,20s25.61-7.1,33.07-20a8,8,0,0,1,13.86,8Z">
        </path>
    </symbol>
    <symbol xmlns="http://www.w3.org/2000/svg" fill="currentColor" viewBox="0 0 256 256" id="Check">
        <path
            d="M229.66,77.66l-128,128a8,8,0,0,1-11.32,0l-56-56a8,8,0,0,1,11.32-11.32L96,188.69,218.34,66.34a8,8,0,0,1,11.32,11.32Z">
        </path>
    </symbol>
    <symbol xmlns="http://www.w3.org/2000/svg" fill="currentColor" viewBox="0 0 256 256" id="Clarity">
        <path
            d="M140,128a12,12,0,1,1-12-12A12,12,0,0,1,140,128ZM84,116a12,12,0,1,0,12,12A12,12,0,0,0,84,116Zm88,0a12,12,0,1,0,12,12A12,12,0,0,0,172,116Zm60,12A104,104,0,0,1,79.12,219.82L45.07,231.17a16,16,0,0,1-20.24-20.24l11.35-34.05A104,104,0,1,1,232,128Zm-16,0A88,88,0,1,0,51.81,172.06a8,8,0,0,1,.66,6.54L40,216,77.4,203.53a7.85,7.85,0,0,1,2.53-.42,8,8,0,0,1,4,1.08A88,88,0,0,0,216,128Z">
        </path>
    </symbol>
    <symbol xmlns="http://www.w3.org/2000/svg" fill="currentColor" viewBox="0 0 256 256" id="Megaphone">
        <path
            d="M240,120a48.05,48.05,0,0,0-48-48H152.2c-2.91-.17-53.62-3.74-101.91-44.24A16,16,0,0,0,24,40V200a16,16,0,0,0,26.29,12.25c37.77-31.68,77-40.76,93.71-43.3v31.72A16,16,0,0,0,151.12,214l11,7.33A16,16,0,0,0,186.5,212l11.77-44.36A48.07,48.07,0,0,0,240,120ZM40,199.93V40h0c42.81,35.91,86.63,45,104,47.24v65.48C126.65,155,82.84,164.07,40,199.93Zm131,8,0,.11-11-7.33V168h21.6ZM192,152H160V88h32a32,32,0,1,1,0,64Z">
        </path>
    </symbol>
    <symbol xmlns="http://www.w3.org/2000/svg" fill="currentColor" viewBox="0 0 256 256" id="BookOpen">
        <path
            d="M224,48H160a40,40,0,0,0-32,16A40,40,0,0,0,96,48H32A16,16,0,0,0,16,64V192a16,16,0,0,0,16,16H96a24,24,0,0,1,24,24,8,8,0,0,0,16,0,24,24,0,0,1,24-24h64a16,16,0,0,0,16-16V64A16,16,0,0,0,224,48ZM96,192H32V64H96a24,24,0,0,1,24,24V200A39.81,39.81,0,0,0,96,192Zm128,0H160a39.81,39.81,0,0,0-24,8V88a24,24,0,0,1,24-24h64Z">
        </path>
    </symbol>
    <symbol xmlns="http://www.w3.org/2000/svg" fill="currentColor" viewBox="0 0 256 256" id="Bulb">
        <path
            d="M176,232a8,8,0,0,1-8,8H88a8,8,0,0,1,0-16h80A8,8,0,0,1,176,232Zm40-128a87.55,87.55,0,0,1-33.64,69.21A16.24,16.24,0,0,0,176,186v6a16,16,0,0,1-16,16H96a16,16,0,0,1-16-16v-6a16,16,0,0,0-6.23-12.66A87.59,87.59,0,0,1,40,104.49C39.74,56.83,78.26,17.14,125.88,16A88,88,0,0,1,216,104Zm-16,0a72,72,0,0,0-73.74-72c-39,.92-70.47,33.39-70.26,72.39a71.65,71.65,0,0,0,27.64,56.3A32,32,0,0,1,96,186v6h64v-6a32.15,32.15,0,0,1,12.47-25.35A71.65,71.65,0,0,0,200,104Zm-16.11-9.34a57.6,57.6,0,0,0-46.56-46.55,8,8,0,0,0-2.66,15.78c16.57,2.79,30.63,16.85,33.44,33.45A8,8,0,0,0,176,104a9,9,0,0,0,1.35-.11A8,8,0,0,0,183.89,94.66Z">
        </path>
    </symbol>
    <symbol xmlns="http://www.w3.org/2000/svg" fill="currentColor" viewBox="0 0 256 256" id="Plus">
        <path
            d="M224,128a8,8,0,0,1-8,8H136v80a8,8,0,0,1-16,0V136H40a8,8,0,0,1,0-16h80V40a8,8,0,0,1,16,0v80h80A8,8,0,0,1,224,128Z">
        </path>
    </symbol>
    <symbol xmlns="http://www.w3.org/2000/svg" fill="currentColor" viewBox="0 0 256 256" id="Rocket">
        <path
            d="M152,224a8,8,0,0,1-8,8H112a8,8,0,0,1,0-16h32A8,8,0,0,1,152,224ZM128,112a12,12,0,1,0-12-12A12,12,0,0,0,128,112Zm95.62,43.83-12.36,55.63a16,16,0,0,1-25.51,9.11L158.51,200h-61L70.25,220.57a16,16,0,0,1-25.51-9.11L32.38,155.83a16.09,16.09,0,0,1,3.32-13.71l28.56-34.26a123.07,123.07,0,0,1,8.57-36.67c12.9-32.34,36-52.63,45.37-59.85a16,16,0,0,1,19.6,0c9.34,7.22,32.47,27.51,45.37,59.85a123.07,123.07,0,0,1,8.57,36.67l28.56,34.26A16.09,16.09,0,0,1,223.62,155.83ZM99.43,184h57.14c21.12-37.54,25.07-73.48,11.74-106.88C156.55,47.64,134.49,29,128,24c-6.51,5-28.57,23.64-40.33,53.12C74.36,110.52,78.31,146.46,99.43,184Zm-15,5.85Q68.28,160.5,64.83,132.16L48,152.36,60.36,208l.18-.13ZM208,152.36l-16.83-20.2q-3.42,28.28-19.56,57.69l23.85,18,.18.13Z">
        </path>
    </symbol>
    <symbol xmlns="http://www.w3.org/2000/svg" fill="currentColor" viewBox="0 0 24 24" id="Language">
        <path
            d="M20,5.5H4A2.50294,2.50294,0,0,0,1.5,8v8A2.50294,2.50294,0,0,0,4,18.5H20A2.50263,2.50263,0,0,0,22.5,16V8A2.50263,2.50263,0,0,0,20,5.5Zm-8.5,12H4A1.50164,1.50164,0,0,1,2.5,16V8A1.50164,1.50164,0,0,1,4,6.5h7.5Zm10-1.5A1.50164,1.50164,0,0,1,20,17.5H12.5V6.5H20A1.50164,1.50164,0,0,1,21.5,8ZM4.8418,15.47412a.498.498,0,0,0,.63232-.31592L6.02692,13.5H7.97308l.5528,1.6582a.49982.49982,0,1,0,.94824-.3164l-2-6a.52019.52019,0,0,0-.94824,0l-2,6A.49957.49957,0,0,0,4.8418,15.47412ZM7,10.58105,7.63971,12.5H6.36029ZM19,11.5H17.52765a3.64579,3.64579,0,0,0,1.0329,2.07617c.26172.32813.55175.69141.85547,1.14649a.5.5,0,1,1-.832.55468c-.28515-.42773-.55859-.76855-.80468-1.07666A8.18684,8.18684,0,0,1,17,13.105a8.18684,8.18684,0,0,1-.7793,1.0957c-.24609.30811-.51953.64893-.80468,1.07666a.5.5,0,1,1-.832-.55468c.30372-.45508.59375-.81836.85547-1.14649A3.64579,3.64579,0,0,0,16.47235,11.5H15a.5.5,0,0,1,0-1h1.5V9a.5.5,0,0,1,1,0v1.5H19a.5.5,0,0,1,0,1Z">
        </path>
    </symbol>
    <symbol xmlns="http://www.w3.org/2000/svg" fill="currentColor" viewBox="0 0 256 256" id="Book">
        <path
            d="M208,24H72A32,32,0,0,0,40,56V224a8,8,0,0,0,8,8H192a8,8,0,0,0,0-16H56a16,16,0,0,1,16-16H208a8,8,0,0,0,8-8V32A8,8,0,0,0,208,24Zm-8,160H72a31.82,31.82,0,0,0-16,4.29V56A16,16,0,0,1,72,40H200Z">
        </path>
    </symbol>
    <symbol xmlns="http://www.w3.org/2000/svg" fill="currentColor" viewBox="0 0 256 256" id="Globe">
        <path
            d="M128,24A104,104,0,1,0,232,128,104.11,104.11,0,0,0,128,24ZM101.63,168h52.74C149,186.34,140,202.87,128,215.89,116,202.87,107,186.34,101.63,168ZM98,152a145.72,145.72,0,0,1,0-48h60a145.72,145.72,0,0,1,0,48ZM40,128a87.61,87.61,0,0,1,3.33-24H81.79a161.79,161.79,0,0,0,0,48H43.33A87.61,87.61,0,0,1,40,128ZM154.37,88H101.63C107,69.66,116,53.13,128,40.11,140,53.13,149,69.66,154.37,88Zm19.84,16h38.46a88.15,88.15,0,0,1,0,48H174.21a161.79,161.79,0,0,0,0-48Zm32.16-16H170.94a142.39,142.39,0,0,0-20.26-45A88.37,88.37,0,0,1,206.37,88ZM105.32,43A142.39,142.39,0,0,0,85.06,88H49.63A88.37,88.37,0,0,1,105.32,43ZM49.63,168H85.06a142.39,142.39,0,0,0,20.26,45A88.37,88.37,0,0,1,49.63,168Zm101.05,45a142.39,142.39,0,0,0,20.26-45h35.43A88.37,88.37,0,0,1,150.68,213Z">
        </path>
    </symbol>
</svg>